<?xml version="1.0" encoding="UTF-8" standalone="no"?>
<!-- Created with Inkscape (http://www.inkscape.org/) -->

<svg
   xmlns:dc="http://purl.org/dc/elements/1.1/"
   xmlns:cc="http://creativecommons.org/ns#"
   xmlns:rdf="http://www.w3.org/1999/02/22-rdf-syntax-ns#"
   xmlns:svg="http://www.w3.org/2000/svg"
   xmlns="http://www.w3.org/2000/svg"
   xmlns:sodipodi="http://sodipodi.sourceforge.net/DTD/sodipodi-0.dtd"
   xmlns:inkscape="http://www.inkscape.org/namespaces/inkscape"
   width="2160"
   height="1620"
   id="svg2"
   version="1.1"
   inkscape:version="0.48.2 r9819"
   sodipodi:docname="warframe logo_minimized.pdf">
  <defs
     id="defs4" />
  <sodipodi:namedview
     id="base"
     pagecolor="#ffffff"
     bordercolor="#666666"
     borderopacity="1.0"
     inkscape:pageopacity="0.0"
     inkscape:pageshadow="2"
     inkscape:zoom="0.41378841"
     inkscape:cx="492.64234"
     inkscape:cy="1248.7938"
     inkscape:document-units="px"
     inkscape:current-layer="g3800"
     showgrid="false"
     inkscape:window-width="1280"
     inkscape:window-height="657"
     inkscape:window-x="-8"
     inkscape:window-y="-8"
     inkscape:window-maximized="1"
     units="in" />
  <metadata
     id="metadata7">
    <rdf:RDF>
      <cc:Work
         rdf:about="">
        <dc:format>image/svg+xml</dc:format>
        <dc:type
           rdf:resource="http://purl.org/dc/dcmitype/StillImage" />
        <dc:title></dc:title>
      </cc:Work>
    </rdf:RDF>
  </metadata>
  <g
     inkscape:label="Layer 1"
     inkscape:groupmode="layer"
     id="layer1"
     transform="translate(0,567.64025)">
    <g
       id="g3800"
       transform="matrix(-0.74412019,0.66804576,-0.66804576,-0.74412019,726.46277,-267.19841)">
      <g
         id="g2999"
         transform="matrix(0,-0.95,0.95,0,725.87442,-154.94952)"
         style="fill:none;stroke:#ff0000;stroke-opacity:1;stroke-width:0.13157895;stroke-miterlimit:4;stroke-dasharray:none">
        <path
           style="fill:none;stroke:#ff0000;stroke-width:0.13157895;stroke-miterlimit:4;stroke-opacity:1;stroke-dasharray:none"
           d="m -302.81703,-143.73607 c -2.25115,-1.47975 -19.78787,-12.87416 -38.97047,-25.32092 -19.18262,-12.44675 -39.46421,-25.98959 -45.07022,-30.09515 l -10.19276,-7.4647 -5.52902,-44.54724 c -3.04094,-24.501 -8.01157,-76.84079 -11.04581,-116.31065 -13.2179,-171.93995 -18.28908,-201.21403 -44.15581,-254.8957 l -15.78768,-32.76444 29.9689,10.88389 c 64.68128,23.49039 113.85106,26.23587 225.4902,12.59079 34.12861,-4.17135 62.20626,-7.16812 62.39472,-6.65943 0.1885,0.50867 -1.98584,11.02544 -4.83182,23.37064 -2.84599,12.34517 -6.26814,32.51964 -7.60479,44.83211 l -2.43025,22.38633 -55.68126,6.21784 c -52.34513,5.8453 -106.54851,15.47666 -118.99551,21.14425 -5.33691,2.43008 -5.54708,3.77983 -6.09554,39.146 -2.64662,170.66219 10.54149,259.94114 47.62435,322.40022 6.07509,10.23231 10.90372,18.99374 10.7303,19.46983 -0.37391,1.02651 -4.15643,-0.66242 -9.81755,-4.38361 z"
           id="path3798"
           inkscape:connector-curvature="0" />
        <path
           style="fill:none;stroke:#ff0000;stroke-width:0.13157895;stroke-miterlimit:4;stroke-opacity:1;stroke-dasharray:none"
           d="m -77.471338,32.564348 c -0.3729,-0.910186 2.00949,-6.380474 5.29419,-12.156233 10.14547,-17.8394927 22.64342,-57.513746 27.9948,-88.868748 5.8913,-34.517977 8.38221,-81.889847 6.92379,-131.671257 -1.24418,-42.46612 -8.71874,-140.56772 -11.11943,-145.93835 -3.26296,-7.29974 -70.848982,-15.34055 -141.729762,-16.86178 -33.36376,-0.71604 -38.9562,-1.50851 -39.76342,-5.63457 -6.20298,-31.70755 -11.17457,-52.83446 -15.37501,-65.33565 -2.79348,-8.31357 -4.87926,-16.60529 -4.63535,-18.42595 0.31034,-2.31563 17.64581,-2.34285 57.69223,-0.0906 112.639852,6.33506 164.749572,-0.14269 227.847792,-28.32374 15.26023,-6.81582 27.95687,-11.91996 28.21476,-11.3431 0.25788,0.57685 -5.42264,16.33215 -12.62341,35.0118 -7.20068,18.67963 -14.5867,43.44177 -16.41334,55.02699 -4.82947,30.63017 -8.09004,101.25904 -8.66014,187.59145 -0.55496,84.03166 -3.38399,160.648219 -6.3057,170.771329 -1.97468,6.84143 -22.7716199,24.300459 -71.98087,60.427926 -25.36446,18.62161 -24.44779,18.049737 -25.36113,15.820453 z"
           id="path3796"
           inkscape:connector-curvature="0" />
        <path
           style="fill:none;stroke:#ff0000;stroke-width:0.13157895;stroke-miterlimit:4;stroke-opacity:1;stroke-dasharray:none"
           d="m 439.1344,-66.143905 c 18.1568,21.48518 38.2443,64.4630203 46.8307,100.19558 4.9839,20.740353 5.568,28.169533 4.6455,59.082783 l -1.0551,35.359412 -6.7421,5.02926 c -3.7082,2.76608 -30.0812,18.04938 -58.6066,33.96288 -28.5256,15.91348 -62.086,35.69337 -74.5789,43.95531 -27.4011,18.1213 -59.9898,47.67763 -79.7001,72.2842 -7.9799,9.96238 -15.166,17.23887 -15.9688,16.16997 -0.8029,-1.06889 -7.381,-10.40246 -14.6179,-20.74123 -16.6412,-23.77363 -47.4986,-55.12699 -74.2185,-75.41136 -11.3905,-8.64711 -43.6224,-30.56175 -71.626502,-48.6992 -28.004,-18.13743 -52.864801,-34.9151 -55.246101,-37.28369 -3.1749,-3.15789 -4.5996,-9.28477 -5.3416,-22.971002 -1.980599,-36.53175 9.5827,-83.686013 30.056801,-122.570733 12.3006,-23.36147 36.8628,-57.45368 38.186402,-53.00276 0.4655,1.56507 -2.454102,7.33525 -6.488102,12.82266 -21.025,28.60119 -32.3371,58.4052303 -30.9391,81.51509 2.6406,43.648123 28.085,65.464693 176.901302,151.678445 l 18.9865,10.99949 37.3005,-18.6154 C 411.0202,100.66851 442.6951,80.095548 457.8404,53.092048 c 5.0538,-9.01064 6.0155,-13.989023 6.6374,-34.359603 0.6684,-21.8785097 0.135,-25.2034597 -6.5323,-40.75174 -3.9929,-9.31126 -11.4223,-23.80434 -16.5098,-32.20684 -9.456,-15.61728 -10.6491,-21.79579 -2.3013,-11.91777 z"
           id="path3794"
           inkscape:connector-curvature="0" />
        <path
           style="fill:none;stroke:#ff0000;stroke-width:0.13157895;stroke-miterlimit:4;stroke-opacity:1;stroke-dasharray:none"
           d="m 213.78389,27.836156 c -14.57074,-14.19258 -26.95558,-27.54922972 -27.5219,-29.6814297 -0.56628,-2.13222 0.60843,-45.2821803 2.6105,-95.8888203 3.95541,-99.980706 3.7985,-114.790126 -1.49577,-141.168656 -1.9312,-9.62223 -3.28298,-17.89993 -3.00395,-18.39491 0.27903,-0.49497 12.26803,4.99142 26.64222,12.19198 28.97451,14.51437 46.93482,19.88706 70.01986,20.94595 8.48478,0.38919 16.61104,1.39928 18.05835,2.24463 1.99801,1.16707 5.92125,42.24828 4.97669,52.11245 -0.0856,0.8937 -13.72743,0.52337 -30.31523,-0.82296 -16.58781,-1.34636 -30.36911,-2.07635 -30.6251,-1.62223 -1.34227,2.38108 -6.23313,54.5036 -7.45157,79.411986 -2.7379,55.97153 0.0329,101.5610503 8.17611,134.5237 5.02905,20.35702 5.06871,20.37529 -30.07021,-13.85169 z"
           id="path3792"
           inkscape:connector-curvature="0" />
        <path
           style="fill:none;stroke:#ff0000;stroke-width:0.13157895;stroke-miterlimit:4;stroke-opacity:1;stroke-dasharray:none"
           d="m 298.47378,-143.7938 c -7.5408,37.85906 -6.7947,95.153526 2.1146,162.379256 2.7214,20.53483 6.1171,39.52411 7.5458,42.19842 2.2655,4.24033 6.341,4.36682 31.8572,0.98913 28.4176,-3.7618 29.2482,-3.69697 28.8692,2.25272 -0.2146,3.369233 -0.3006,15.703771 -0.191,27.410071 l 0.1993,21.284083 -18.4651,2.36772 c -26.6194,3.41329 -43.5245,9.25394 -71.3083,24.63672 -13.4944,7.47132 -24.7383,13.26025 -24.9863,12.86428 -0.2481,-0.39597 0.5639,-11.78515 1.8045,-25.30936 2.6302,-28.672653 2.07,-40.291083 -7.1219,-147.712394 -3.7853,-44.23703 -6.6517,-81.457796 -6.3698,-82.712776 0.6485,-2.88695 51.579,-57.03613 56.6537,-60.23401 2.7808,-1.75387 2.6233,3.39378 -0.6019,19.58614 z"
           id="path3790"
           inkscape:connector-curvature="0" />
        <path
           style="fill:none;stroke:#ff0000;stroke-width:0.13157895;stroke-miterlimit:4;stroke-opacity:1;stroke-dasharray:none"
           d="m -208.48446,-164.92681 c -38.68989,43.45838 -95.00255,78.448547 -161.2808,100.212637 -20.26955,6.656 -31.93991,8.82112 -70.14493,13.01344 l -45.82999,5.0291 -5.79941,-5.93891 c -3.18976,-3.26646 -17.63928,-22.21764 -32.11027,-42.11385 -78.00957,-107.255637 -102.30737,-138.050547 -134.77226,-170.809347 -33.81905,-34.12519 -78.28801,-67.50863 -117.46547,-88.183 l -21.53378,-11.36356 19.21348,-16.35171 c 64.61899,-54.99416 108.63285,-119.69365 159.6637,-234.70206 54.07821,-121.87596 54.04329,-121.80448 60.7953,-124.64608 10.0319,-4.22174 72.90338,-10.6246 94.44352,-9.61798 63.94128,2.98785 128.55884,21.19912 175.62315,49.49629 16.64058,10.00503 41.73583,29.86413 40.17763,31.79441 -0.53946,0.66843 -10.6503,-3.72351 -22.46857,-9.75993 -77.05115,-39.35502 -138.04021,-45.27238 -183.6048,-17.81375 -14.39318,8.67374 -36.22253,33.27138 -45.84843,51.66274 -10.27116,19.62404 -64.66896,140.96698 -91.68732,204.52276 l -23.48158,55.23646 15.98596,23.46111 c 38.95149,57.16545 144.51738,200.0567 159.53801,215.94655 38.92048,41.1727 89.39609,49.544627 147.1422,24.40513 20.07653,-8.74023 56.08121,-31.55411 76.69689,-48.59797 9.28244,-7.67413 17.50362,-14.01985 18.2693,-14.10155 4.1658,-0.44452 0.41623,5.81003 -11.52152,19.21918 z"
           id="path3788"
           inkscape:connector-curvature="0" />
        <path
           style="fill:none;stroke:#ff0000;stroke-width:0.13157895;stroke-miterlimit:4;stroke-opacity:1;stroke-dasharray:none"
           d="m 679.49697,-248.02988 c 82.71479,93.00933 124.29594,200.580986 129.27646,334.442245 1.12216,30.160665 -2.14495,83.777485 -7.12647,116.952995 l -2.09729,13.9674 -24.66084,12.31452 C 584.10976,324.91377 486.55726,381.64422 402.27219,446.3377 c -63.46983,48.7165 -114.1636,102.29993 -138.03205,145.90024 -4.01243,7.32938 -8.06851,13.29146 -9.01356,13.24899 -0.94516,-0.0425 -5.93438,-8.92538 -11.0873,-19.73978 C 190.83615,473.87981 39.972958,346.53983 -235.15427,181.18708 c -12.14764,-7.30081 -16.98669,-11.65265 -17.83158,-16.03637 -2.62157,-13.60296 0.83744,-114.00466 4.88443,-141.775953 17.80219,-122.159744 71.21851,-226.319127 158.12833,-308.342717 14.277817,-13.47517 26.646606,-23.75753 27.486008,-22.84968 0.839462,0.90786 -5.440366,9.21429 -13.955195,18.4588 -42.767613,46.43247 -74.216933,100.89879 -92.427733,160.07313 -6.60193,21.4523 -7.80141,29.25839 -9.10199,59.234192 -1.72856,39.853542 0.73865,54.877966 14.0144,85.322952 12.54321,28.765332 24.27654,41.861004 59.60823,66.529114 C -48.039087,121.11574 65.736767,194.76036 199.73572,278.6282 l 67.16938,42.04022 21.81403,-10.47918 c 75.76761,-36.39783 310.94149,-159.55011 374.72291,-196.22913 33.98018,-19.541128 47.28142,-31.941116 61.69356,-57.513516 39.56223,-70.197687 26.76997,-173.849984 -33.78541,-273.753814 -8.50678,-14.03439 -19.82632,-31.08092 -25.15443,-37.88104 -15.92562,-20.3253 -16.38497,-21.01485 -13.92604,-20.90435 1.30077,0.0584 13.553,12.68662 27.22725,28.06273 z"
           id="path3766"
           inkscape:connector-curvature="0" />
      </g>
    </g>
  </g>
</svg>
