<?xml version="1.0" encoding="UTF-8" standalone="no"?>
<!-- Created with Inkscape (http://www.inkscape.org/) -->

<svg
   xmlns:dc="http://purl.org/dc/elements/1.1/"
   xmlns:cc="http://creativecommons.org/ns#"
   xmlns:rdf="http://www.w3.org/1999/02/22-rdf-syntax-ns#"
   xmlns:svg="http://www.w3.org/2000/svg"
   xmlns="http://www.w3.org/2000/svg"
   xmlns:sodipodi="http://sodipodi.sourceforge.net/DTD/sodipodi-0.dtd"
   xmlns:inkscape="http://www.inkscape.org/namespaces/inkscape"
   width="2160"
   height="1620"
   id="svg2"
   version="1.1"
   inkscape:version="0.48.2 r9819"
   sodipodi:docname="warframe logo back.svg">
  <defs
     id="defs4" />
  <sodipodi:namedview
     id="base"
     pagecolor="#ffffff"
     bordercolor="#666666"
     borderopacity="1.0"
     inkscape:pageopacity="0.0"
     inkscape:pageshadow="2"
     inkscape:zoom="0.35"
     inkscape:cx="844.11368"
     inkscape:cy="823.01578"
     inkscape:document-units="px"
     inkscape:current-layer="layer1"
     showgrid="false"
     inkscape:window-width="1920"
     inkscape:window-height="1137"
     inkscape:window-x="-8"
     inkscape:window-y="-8"
     inkscape:window-maximized="1"
     units="in" />
  <metadata
     id="metadata7">
    <rdf:RDF>
      <cc:Work
         rdf:about="">
        <dc:format>image/svg+xml</dc:format>
        <dc:type
           rdf:resource="http://purl.org/dc/dcmitype/StillImage" />
        <dc:title></dc:title>
      </cc:Work>
    </rdf:RDF>
  </metadata>
  <g
     inkscape:label="Layer 1"
     inkscape:groupmode="layer"
     id="layer1"
     transform="translate(0,567.64025)">
    <g
       id="g3811"
       transform="matrix(0.95,0,0,0.95,7.7047443,-17.28543)">
      <path
         inkscape:connector-curvature="0"
         id="path3798"
         d="m 355.96952,512.90811 c -2.62165,-0.61992 -22.99905,-5.32424 -45.28311,-10.45405 -22.28406,-5.12979 -45.97587,-10.91335 -52.64846,-12.8523 l -12.13201,-3.52541 -20.44147,-39.96466 C 214.22167,424.13112 191.63786,376.65342 175.27824,340.60568 104.01189,183.5733 89.227863,157.80275 46.550649,116.21593 l -26.04792,-25.382381 31.884055,-0.0303 c 68.814696,-0.0655 115.954676,-14.31425 216.181706,-65.34394 30.63987,-15.6000105 55.99622,-28.0254105 56.3474,-27.6119505 0.35121,0.41344 1.90756,11.03926 3.45861,23.6129505 1.55104,12.57367 5.2403,32.70101 8.19834,44.72738 l 5.37827,21.86614 -50.19052,24.899321 c -47.18336,23.40749 -94.81696,51.00838 -104.57253,60.5937 -4.1829,4.10989 -3.91842,5.45006 7.67036,38.86812 55.9226,161.26144 98.87011,240.63504 155.09019,286.63046 9.21023,7.53515 16.74586,14.11486 16.74586,14.62155 0,1.09249 -4.13213,0.80013 -10.72495,-0.7588 z"
         style="fill:none;stroke:#0000ff;stroke-width:0.125;stroke-miterlimit:4;stroke-opacity:1;stroke-dasharray:none" />
      <path
         inkscape:connector-curvature="0"
         id="path3796"
         d="m 1479.7621,512.80063 c 0.031,-0.98312 4.4383,-5.00498 9.7941,-8.93746 16.5423,-12.14621 44.1427,-43.26634 61.8238,-69.70784 19.4647,-29.10882 41.0706,-71.34014 60.0542,-117.38292 16.194,-39.27688 49.404,-131.8884 49.404,-137.77116 0,-7.99583 -58.4208,-42.91752 -122.5102,-73.2318 -30.167,-14.269001 -34.9492,-17.274681 -34.0023,-21.370921 7.2764,-31.47858 11.3592,-52.7951 12.626,-65.92211 0.8424,-8.7297905 2.3219,-17.1508605 3.2876,-18.71346048 1.2283,-1.98740002 17.0657,5.06210998 52.7067,23.46071048 100.2485,51.7503 150.4653,67.10178 219.5707,67.12359 16.7131,0.005 30.3874,0.52655 30.3874,1.15841 0,0.63187 -11.6155,12.697431 -25.8123,26.812371 -14.1967,14.11494 -31.0448,33.70725 -37.4402,43.53845 -16.9088,25.99277 -48.7082,89.14234 -84.4597,167.7263 -34.7988,76.48969 -68.6477,145.28179 -75.4462,153.3313 -4.5946,5.44002 -30.7058,12.89219 -90.3742,25.7929 -30.7556,6.64956 -29.6853,6.50158 -29.6094,4.09364 z"
         style="fill:none;stroke:#0000ff;stroke-width:0.125;stroke-miterlimit:4;stroke-opacity:1;stroke-dasharray:none" />
      <path
         inkscape:connector-curvature="0"
         id="path3794"
         d="m 751.15677,454.3999 c -18.84931,-20.88028 -40.33084,-63.17862 -50.08058,-98.61146 -5.65905,-20.56638 -6.48568,-27.9725 -6.57399,-58.89939 l -0.10105,-35.375 6.57411,-5.24693 c 3.61576,-2.8858 29.47514,-19.02289 57.4653,-35.8602 27.99013,-16.83729 60.88617,-37.70349 73.10232,-46.36932 26.79428,-19.00718 58.39951,-49.61284 77.29503,-74.850461 7.65015,-10.21787 14.59449,-17.72534 15.43184,-16.68325 0.83734,1.04208 7.71694,10.15567 15.28799,20.252391 17.40931,23.21704 49.27494,53.54512 76.64346,72.94536 11.6671,8.2702 44.598,29.11969 73.1799,46.33218 28.5819,17.21247 53.9777,33.16864 56.4352,35.45813 3.2764,3.05244 4.9006,9.12948 6.0895,22.78415 3.1735,36.4475 -6.8424,83.95449 -26.0347,123.48761 -11.5305,23.75101 -34.9653,58.62778 -36.4337,54.2225 -0.5164,-1.54902 2.2131,-7.41154 6.0655,-13.02786 20.079,-29.27308 30.411,-59.43092 28.2584,-82.48274 -4.0657,-43.5385 -30.2096,-64.5118 -181.76407,-145.81566 l -19.33593,-10.37307 -36.67213,19.82457 c -112.18539,60.64629 -143.17081,82.2435 -157.42555,109.72758 -4.75657,9.171 -5.55505,14.17815 -5.51082,34.55817 0.0474,21.88867 0.68886,25.19441 7.86077,40.51647 4.29501,9.17579 12.19412,23.41831 17.5536,31.65004 9.96137,15.29988 11.35574,21.4361 2.6896,11.83619 z"
         style="fill:none;stroke:#0000ff;stroke-width:0.125;stroke-miterlimit:4;stroke-opacity:1;stroke-dasharray:none" />
      <path
         inkscape:connector-curvature="0"
         id="path3792"
         d="m 425.08586,435.65944 c -19.66241,-5.20823 -37.01013,-10.76168 -38.55052,-12.34098 -1.54036,-1.57934 -21.70663,-39.74504 -44.81391,-84.8127 -45.65174,-89.03767 -53.06087,-101.86141 -70.62648,-122.24046 -6.40749,-7.43377 -11.64996,-13.98083 -11.64996,-14.54904 0,-0.5682 13.13806,-1.67631 29.19569,-2.46247 32.36785,-1.58469 50.65181,-5.72417 71.28166,-16.13809 7.58239,-3.82757 15.15737,-6.93821 16.83328,-6.91254 2.31361,0.0355 25.90492,33.89563 29.92608,42.95235 0.36432,0.82055 -11.70125,7.19703 -26.81237,14.16996 -15.11114,6.97291 -27.47479,13.10456 -27.47479,13.62586 0,2.73336 21.33519,50.54013 32.50551,72.83668 25.10081,50.10247 49.90213,88.45579 73.18273,113.17139 14.3776,15.26382 14.42112,15.26026 -32.99692,2.70004 z"
         style="fill:none;stroke:#0000ff;stroke-width:0.125;stroke-miterlimit:4;stroke-opacity:1;stroke-dasharray:none" />
      <path
         inkscape:connector-curvature="0"
         id="path3790"
         d="m 1389.6298,429.18138 c 26.4893,-28.08006 56.2739,-77.02994 84.4131,-138.72968 8.5954,-18.84688 15.7989,-36.74194 16.0079,-39.76675 0.3313,-4.79613 -3.0553,-7.06696 -26.472,-17.75079 -26.0794,-11.89864 -26.7488,-12.39449 -23.269,-17.2353 1.9705,-2.74133 8.5916,-13.14851 14.7135,-23.12707 l 11.1305,-18.14287 16.9051,7.79637 c 24.3705,11.23934 41.7973,15.26441 73.509,16.97845 15.4022,0.83252 28.004,1.89596 28.004,2.36321 0,0.46725 -6.7345,9.68784 -14.9657,20.4902 -17.4508,22.90213 -23.1442,33.04545 -72.3832,128.95869 -20.277,39.49793 -37.6079,72.56214 -38.5131,73.47597 -2.0822,2.10226 -73.99,20.95221 -79.9882,20.96816 -3.2877,0.01 -0.4214,-4.26872 10.9081,-16.27859 z"
         style="fill:none;stroke:#0000ff;stroke-width:0.125;stroke-miterlimit:4;stroke-opacity:1;stroke-dasharray:none" />
      <path
         inkscape:connector-curvature="0"
         id="path3788"
         d="m 661.02142,387.67628 c -39.1079,-43.08259 -67.92555,-102.78997 -82.53439,-171.00334 -4.46775,-20.86136 -5.38237,-32.69557 -5.49732,-71.12974 l -0.13799,-46.104861 6.52076,-5.13656 c 3.58645,-2.82511 23.96385,-15.18235 45.28312,-27.46056 114.92735,-66.18894048 148.12648,-87.08214 184.14498,-115.8879 37.52092,-30.00733 75.43428,-70.683109 100.14885,-107.445819 l 13.58424,-20.20647 14.22076,20.83998 c 47.82743,70.089299 107.49157,120.719609 216.43617,183.665259 115.4501,66.70444 115.3827,66.66216 117.4918,73.677581 3.1335,10.4232 2.8293,73.61915 -0.4571,94.93086 -9.7554,63.2633 -34.7201,125.58385 -67.8512,169.37999 -11.7142,15.48508 -34.1239,38.33153 -35.878,36.57736 -0.6074,-0.60734 4.8326,-10.19514 12.0889,-21.30621 47.3083,-72.44047 59.6634,-132.45737 37.1944,-180.67824 -7.0976,-15.23226 -29.2402,-39.54827 -46.5064,-51.07123 C 1150.8495,137.02102 1035.9634,70.055299 975.6331,36.445959 L 923.20002,7.2360785 898.17514,20.642509 C 837.19955,53.308599 683.91392,143.11722 666.52003,156.36708 c -45.06995,34.33221 -58.75029,83.6346 -39.87979,143.72213 6.56069,20.89058 25.42554,59.11265 40.18576,81.42037 6.64594,10.0443 12.08354,18.89238 12.08354,19.66241 0,4.18945 -5.82143,-0.20259 -17.88822,-13.49571 z"
         style="fill:none;stroke:#0000ff;stroke-width:0.125;stroke-miterlimit:4;stroke-opacity:1;stroke-dasharray:none" />
      <path
         inkscape:connector-curvature="0"
         id="path3766"
         d="M 536.8054,323.32659 C 449.99922,234.12363 403.63167,128.52681 392.64782,-4.9759915 390.17303,-35.055891 391.03024,-88.765341 394.51763,-122.13103 l 1.46827,-14.04744 24.08326,-13.40902 c 186.31072,-103.73361 281.2186,-164.78552 362.51497,-233.19689 61.2192,-51.51628 109.45675,-107.32108 131.3442,-151.94878 3.67937,-7.5021 7.4638,-13.6402 8.40984,-13.6402 0.94603,0 6.32896,8.65 11.96206,19.2222 58.27057,109.3621 214.69737,229.80225 496.96917,382.63927 12.4631,6.74821 17.4926,10.87846 18.5334,15.21985 3.2295,13.47158 4.2805,113.927359 1.4841,141.852309 -12.3011,122.835671 -60.9884,229.287671 -144.129,315.129531 -13.6586,14.10245 -25.5534,24.92962 -26.4327,24.06037 -0.8794,-0.86924 5.0213,-9.4492 13.1126,-19.06657 40.6404,-48.30531 69.6133,-104.12833 85.1497,-164.06042 5.6324,-21.72702 6.4803,-29.57907 6.4341,-59.58304 -0.062,-39.890971 -3.2011,-54.789501 -17.83,-84.607931 -13.8217,-28.1733405 -26.131,-40.72915 -62.5343,-63.78655 -58.0182,-36.74809 -174.9849,-105.211629 -312.6132,-182.980389 l -68.98868,-38.983 -21.3217,11.44774 c -74.05753,39.76198 -303.46672,173.345879 -365.5375,212.850799 -33.06881,21.04664 -45.80006,34.0311695 -59.04987,60.22466 -36.37154,71.9027 -18.93974,174.876361 46.03877,271.961451 9.12817,13.63846 21.20138,30.15967 26.82938,36.71381 16.82187,19.59 17.31171,20.25823 14.85032,20.25823 -1.30211,0 -14.10884,-12.06556 -28.45942,-26.81237 z"
         style="fill:none;stroke:#0000ff;stroke-width:0.125;stroke-miterlimit:4;stroke-opacity:1;stroke-dasharray:none" />
    </g>
    <rect
       style="fill:none;stroke:#ff0000;stroke-width:0.96416676px;stroke-linecap:butt;stroke-linejoin:miter;stroke-opacity:1"
       id="rect3809"
       width="1760.9614"
       height="1062.9921"
       x="2.8422751"
       y="-564.95642" />
  </g>
</svg>
